<?xml version="1.0" encoding="UTF-8"?>
<svg width="5096px" height="4139px" viewBox="0 0 5096 4139" version="1.1" xmlns="http://www.w3.org/2000/svg" xmlns:xlink="http://www.w3.org/1999/xlink">
    <!-- Generator: Sketch 43.2 (39069) - http://www.bohemiancoding.com/sketch -->
    <title>REACT AMSTERDAM</title>
    <desc>Created with Sketch.</desc>
    <defs></defs>
    <g id="Page-1" stroke="none" stroke-width="1" fill="none" fill-rule="evenodd">
        <g id="logo" transform="translate(1548.000000, 412.000000)" fill="#00DD3B">
            <path d="M1112.21683,480.296759 C1074.76297,433.003042 1038.93754,387.340143 999.855251,348.200515 C962.40139,388.970961 924.947528,433.003042 889.122096,480.296759 C962.40139,477.035123 1037.30911,477.035123 1112.21683,480.296759 L1112.21683,480.296759 Z M934.718101,282.967802 C851.668235,203.057728 657.885214,44.8683983 547.152059,108.470294 L547.152059,108.470294 C434.790476,173.703007 477.129623,419.956499 503.184483,530.852112 C584.60592,512.913116 672.541073,498.235755 766.98994,488.450848 C822.356517,413.433228 877.723095,343.308061 934.718101,282.967802 L934.718101,282.967802 Z M1301.11457,1196.22579 C1361.36643,1188.0717 1418.36144,1178.28679 1472.09959,1165.24025 C1455.8153,1113.05408 1436.27416,1057.60627 1413.47615,1002.15846 C1379.27915,1069.022 1341.82529,1134.25471 1301.11457,1196.22579 L1301.11457,1196.22579 Z M1232.72056,1297.33649 C1178.98241,1373.98493 1121.98741,1444.1101 1064.9924,1504.45036 C1091.04726,1528.91262 1115.47369,1550.11326 1139.90012,1571.31389 C1268.54599,1674.05541 1384.16444,1718.08749 1452.55844,1678.94786 L1452.55844,1678.94786 C1564.92003,1613.71515 1522.58088,1367.46166 1496.52602,1254.93523 C1415.10458,1274.50504 1327.16943,1289.1824 1232.72056,1297.33649 L1232.72056,1297.33649 Z M999.855251,1571.31389 C884.23681,1682.2095 661.142071,1853.44537 499.927625,1758.85794 L499.927625,1758.85794 C338.713179,1665.90132 374.538612,1388.66229 413.620902,1232.10378 C258.920171,1186.44088 0,1080.43772 0,892.89367 C0,706.980438 258.920171,599.346461 413.620902,553.683561 C374.538612,398.755868 338.713179,121.516836 499.927625,26.9294021 L499.927625,26.9294021 C661.142071,-66.0272142 884.23681,103.57784 999.855251,214.473453 C1117.10212,105.208658 1338.56843,-66.0272142 1499.78288,26.9294021 L1499.78288,26.9294021 C1660.99732,119.886018 1625.17189,397.12505 1586.0896,553.683561 C1740.79033,599.346461 1999.7105,706.980438 1999.7105,892.89367 C1999.7105,1078.8069 1740.79033,1186.44088 1586.0896,1232.10378 C1623.54346,1388.66229 1660.99732,1665.90132 1499.78288,1758.85794 L1499.78288,1758.85794 C1393.93501,1820.82902 1240.86271,1771.90448 1082.90512,1643.06987 C1055.22183,1621.86924 1027.53854,1597.40697 999.855251,1571.31389 L999.855251,1571.31389 Z M438.047333,1142.4088 C462.473764,1062.49872 495.042339,979.327015 534.124629,892.89367 C495.042339,806.460325 462.473764,723.288616 438.047333,643.378542 C327.314178,675.994899 92.8204386,764.059062 92.8204386,892.89367 C92.8204386,1023.3591 327.314178,1111.42326 438.047333,1142.4088 L438.047333,1142.4088 Z M586.234349,783.628876 C620.431353,716.765345 657.885214,653.163449 698.595933,591.192372 C638.344069,599.346461 581.349063,609.131368 527.610914,622.17791 C543.895202,672.733263 563.436347,728.181069 586.234349,783.628876 L586.234349,783.628876 Z M1561.66317,643.378542 C1537.23674,723.288616 1504.66816,806.460325 1465.58587,892.89367 C1504.66816,979.327015 1537.23674,1062.49872 1561.66317,1142.4088 C1670.76789,1109.79244 1906.89006,1021.72828 1906.89006,892.89367 C1906.89006,764.059062 1672.39632,675.994899 1561.66317,643.378542 L1561.66317,643.378542 Z M934.718101,1504.45036 C877.723095,1444.1101 822.356517,1373.98493 766.98994,1297.33649 C674.169501,1289.1824 584.60592,1274.50504 503.184483,1254.93523 C475.501194,1365.83084 434.790476,1613.71515 547.152059,1678.94786 L547.152059,1678.94786 C659.513643,1744.18058 851.668235,1584.36043 934.718101,1504.45036 L934.718101,1504.45036 Z M999.855251,1439.21764 C1037.30911,1398.4472 1074.76297,1354.41512 1112.21683,1307.1214 C1037.30911,1310.38303 964.029818,1310.38303 889.122096,1307.1214 C924.947528,1354.41512 962.40139,1398.4472 999.855251,1439.21764 L999.855251,1439.21764 Z M1182.23927,1209.27233 C1250.63328,1109.79244 1310.88514,1003.78928 1362.99486,894.524488 C1310.88514,785.259693 1249.00485,679.256534 1180.61084,579.776647 C1060.10711,571.622558 937.974958,571.622558 815.842802,579.776647 C747.448795,679.256534 687.196931,786.890511 633.458783,894.524488 C685.568503,1003.78928 747.448795,1109.79244 815.842802,1209.27233 C939.603387,1217.42642 1061.73554,1217.42642 1182.23927,1209.27233 L1182.23927,1209.27233 Z M1413.47615,783.628876 C1436.27416,728.181069 1457.44373,672.733263 1473.72802,620.547093 C1419.98987,607.50055 1362.99486,597.715643 1302.743,589.561554 C1341.82529,653.163449 1379.27915,718.396162 1413.47615,783.628876 L1413.47615,783.628876 Z M1496.52602,530.852112 C1524.20931,419.956499 1564.92003,172.072189 1452.55844,108.470294 L1452.55844,108.470294 C1340.19686,43.2375804 1146.41384,203.057728 1064.9924,281.336984 C1121.98741,343.308061 1178.98241,411.80241 1232.72056,488.450848 C1327.16943,498.235755 1416.73301,512.913116 1496.52602,530.852112 L1496.52602,530.852112 Z M586.234349,1002.15846 C563.436347,1057.60627 543.895202,1113.05408 527.610914,1165.24025 C581.349063,1176.65597 638.344069,1188.0717 698.595933,1196.22579 C659.513643,1134.25471 622.059781,1069.022 586.234349,1002.15846 L586.234349,1002.15846 Z" id="Shape" fill-rule="nonzero"></path>
            <path d="M952.630817,622.17791 L999.855251,669.471627 L1047.07968,622.17791 L1084.53355,661.317538 L1037.30911,708.611255 L1084.53355,755.904973 L1047.07968,793.413783 L999.855251,746.120066 L952.630817,793.413783 L913.548527,755.904973 L960.772961,708.611255 L913.548527,661.317538 L952.630817,622.17791 Z M1084.53355,1033.144 L1037.30911,1080.43772 L1084.53355,1127.73144 L1047.07968,1165.24025 L999.855251,1117.94653 L952.630817,1165.24025 L915.176956,1126.10062 L962.40139,1078.8069 L915.176956,1031.51319 L954.259246,992.373558 L1001.48368,1039.66728 L1048.70811,992.373558 L1084.53355,1033.144 Z M1084.53355,847.230771 L1037.30911,894.524488 L1084.53355,941.818205 L1047.07968,979.327015 L999.855251,932.033298 L952.630817,979.327015 L913.548527,941.818205 L960.772961,894.524488 L913.548527,847.230771 L952.630817,808.091143 L999.855251,855.38486 L1047.07968,808.091143 L1084.53355,847.230771 Z" id="Shape"></path>
        </g>
        <text id="REACT-AMSTERDAM" font-family="Lato-Black, Lato" font-size="500" font-weight="700" letter-spacing="43.2142868" fill="#00DD3B">
            <tspan x="1644.46428" y="3017">REACT</tspan>
            <tspan x="735.660709" y="3616">AMSTERDAM</tspan>
        </text>
    </g>
</svg>